<svg xmlns="http://www.w3.org/2000/svg" width="21.142" height="21.142"><g fill="#fff"><path d="M11.93 20.435L.708 9.213 9.213.708 20.435 11.93l-8.505 8.505z"/><path d="M9.213 1.415L1.415 9.213 11.93 19.728l7.798-7.798L9.213 1.415m0-1.414l11.93 11.929-9.213 9.212L0 9.212 9.214.002z" fill="#707070"/><path d="M11.803 17.197l-8.11-8.11 5.393-5.393 8.11 8.11-5.393 5.393z"/><path d="M9.086 4.4L4.4 9.088l7.403 7.403 4.686-4.686L9.086 4.4m0-1.414l8.817 8.817-6.1 6.1-8.817-8.817 6.1-6.1z" fill="#707070"/></g></svg>