<svg xmlns="http://www.w3.org/2000/svg" width="23.859" height="23.859"><g fill="#fff"><path d="M11.93 23.152L.706 11.929 11.93.707 23.152 11.93 11.929 23.152z"/><path d="M11.93 1.414L1.413 11.93 11.93 22.444 22.444 11.93 11.93 1.414m0-1.414l11.93 11.93-11.93 11.929L0 11.929 11.93 0z" fill="#707070"/><path d="M11.803 19.914l-8.11-8.11 8.11-8.11 8.11 8.11-8.11 8.11z"/><path d="M11.803 4.4L4.4 11.803l7.403 7.403 7.403-7.403L11.803 4.4m0-1.414l8.818 8.817-8.818 8.818-8.817-8.818 8.817-8.817z" fill="#707070"/></g></svg>