<svg xmlns="http://www.w3.org/2000/svg" width="23" height="20"><g fill="#fff"><path d="M19.543 19.5H3.457c-.542 0-1.027-.28-1.298-.749a1.485 1.485 0 01-.002-1.499L10.2 3.265c.27-.472.757-.753 1.3-.753s1.03.281 1.3.753l8.043 13.987c.27.47.27 1.03-.002 1.5a1.485 1.485 0 01-1.298.748z"/><path d="M11.5 3.012a.982.982 0 00-.867.502L2.59 17.502a.983.983 0 00.001.999c.087.15.345.499.866.499h16.086c.52 0 .779-.35.866-.5a.983.983 0 000-.998L12.368 3.514a.982.982 0 00-.867-.502m0-1c.675 0 1.35.335 1.734 1.003l8.043 13.988C22.043 18.336 21.08 20 19.543 20H3.457c-1.538 0-2.5-1.664-1.734-2.997L9.766 3.015A1.981 1.981 0 0111.5 2.012z" fill="#707070"/><path d="M16.568 17.5H6.432c-.54 0-1.024-.278-1.296-.745a1.486 1.486 0 01-.009-1.495l5.068-8.943c.27-.476.758-.76 1.305-.76.547 0 1.035.284 1.305.76l5.068 8.943c.266.47.263 1.029-.01 1.495a1.486 1.486 0 01-1.295.745z"/><path d="M11.5 6.057c-.175 0-.61.05-.87.507l-5.068 8.943a.983.983 0 00.006.996c.087.15.345.497.864.497h10.136a.983.983 0 00.864-.497.983.983 0 00.006-.996L12.37 6.564a.981.981 0 00-.87-.507m0-1a1.98 1.98 0 011.74 1.014l5.068 8.943C19.063 16.347 18.1 18 16.568 18H6.432c-1.532 0-2.495-1.653-1.74-2.986L9.76 6.071a1.98 1.98 0 011.74-1.014z" fill="#707070"/></g></svg>