<svg xmlns="http://www.w3.org/2000/svg" width="25" height="22"><g fill="#fff"><path d="M12.5 21.395L.89 13.5 12.5 5.605 24.11 13.5 12.5 21.395z"/><path d="M12.5 6.21L1.778 13.5 12.5 20.79l10.722-7.29L12.5 6.21m0-1.21L25 13.5 12.5 22 0 13.5 12.5 5z" fill="#707070"/><path d="M12.5 19.395L.89 11.5 12.5 3.605 24.11 11.5 12.5 19.395z"/><path d="M12.5 4.21L1.778 11.5 12.5 18.79l10.722-7.29L12.5 4.21m0-1.21L25 11.5 12.5 20 0 11.5 12.5 3z" fill="#707070"/><path d="M12.5 16.395L.89 8.5 12.5.605 24.11 8.5 12.5 16.395z"/><path d="M12.5 1.21L1.778 8.5 12.5 15.79 23.222 8.5 12.5 1.21m0-1.21L25 8.5 12.5 17 0 8.5 12.5 0z" fill="#707070"/></g></svg>