<svg xmlns="http://www.w3.org/2000/svg" width="564" height="564"><g transform="translate(-572 -5811)"><circle cx="242" cy="242" r="242" transform="translate(612 5851)" fill="none" stroke="#fff" stroke-width="80" opacity=".096"/><g opacity=".1"><path d="M736.973 5970.083h194.341v194.341H736.973z" fill="none"/><path d="M899.005 6094.624a92.66 92.66 0 01-28.584-4.535 7.914 7.914 0 00-8.179 1.943l-12.713 15.953c-22.916-10.932-44.374-31.581-55.792-55.309l15.79-13.44a8.264 8.264 0 001.939-8.26 90.308 90.308 0 01-4.53-28.583 8.088 8.088 0 00-8.016-8.017h-28.018c-4.373 0-9.636 1.943-9.636 8.017 0 75.226 62.594 137.739 137.739 137.739 5.749 0 8.017-5.1 8.017-9.555v-27.937a8.088 8.088 0 00-8.017-8.016z" fill="#fff"/></g></g></svg>
