<svg xmlns="http://www.w3.org/2000/svg" width="42" height="42"><path d="M35.029 0H6.972A6.993 6.993 0 000 6.972v28.055A6.993 6.993 0 006.973 42h28.056a6.993 6.993 0 006.973-6.973V6.972A6.993 6.993 0 0035.029 0zM13.445 18.372h15.11a8 8 0 11-15.11 0zm23.305 0v15.753a2.633 2.633 0 01-2.621 2.625H7.875a2.633 2.633 0 01-2.625-2.625V18.372h4.106a11.936 11.936 0 1023.288 0zm0-9.19a1.316 1.316 0 01-1.312 1.313h-2.626A1.316 1.316 0 0131.5 9.183v-2.62a1.316 1.316 0 011.313-1.313h2.625a1.316 1.316 0 011.313 1.313z" fill="#102a83"/></svg>
