<svg xmlns="http://www.w3.org/2000/svg" width="17.451" height="18.404"><path d="M15.484 1.793c-.456-.42-2.3-1.761-6.422-1.779 0 0-4.855-.291-7.22 1.88C.525 3.209.062 5.139.012 7.529s-.111 6.868 4.2 8.083v1.855s-.029.751.467.9c.6.187.949-.385 1.52-1 .313-.338.744-.834 1.071-1.211a16.7 16.7 0 005.481-.4 5.4 5.4 0 004.518-5.1c.568-4.622-.273-7.54-1.79-8.859zm.5 8.521c-.464 3.738-3.2 3.975-3.7 4.137a15.452 15.452 0 01-4.715.4S5.7 17.104 5.118 17.69c-.19.19-.4.173-.4-.2 0-.248.014-3.08.014-3.08-3.659-1.012-3.441-4.829-3.401-6.824s.417-3.63 1.531-4.73c2-1.815 6.124-1.545 6.124-1.545 3.483.014 5.15 1.064 5.538 1.416 1.283 1.1 1.937 3.731 1.459 7.587zm-5-2.9a.232.232 0 01-.464.022 1.111 1.111 0 00-1.172-1.218.232.232 0 01.025-.464 1.563 1.563 0 011.615 1.656zm.73.406a2.685 2.685 0 00-2.721-2.854.235.235 0 01.032-.468 3.148 3.148 0 013.156 3.324.232.232 0 01-.464-.011zm1.689.482a.232.232 0 01-.464 0 4.237 4.237 0 00-4.338-4.543.232.232 0 010-.464 4.7 4.7 0 014.805 5.003zm-.406 3.526v.007c-.388.683-1.114 1.438-1.862 1.2l-.007-.011a13.815 13.815 0 01-3.673-2.031 9.4 9.4 0 01-1.521-1.531 11.663 11.663 0 01-1.106-1.675 10.739 10.739 0 01-.934-2c-.241-.748.51-1.474 1.2-1.862h.007a.654.654 0 01.859.14s.446.532.636.794c.18.244.42.636.546.855a.75.75 0 01-.133.956l-.436.345a.632.632 0 00-.19.5 4.5 4.5 0 003.03 3.03.632.632 0 00.5-.19l.345-.431a.75.75 0 01.956-.133 9.312 9.312 0 011.646 1.182.642.642 0 01.14.851z"/></svg>
