<svg xmlns="http://www.w3.org/2000/svg" width="19.553" height="19.546" viewBox="0 0 19.553 19.546">
  <path d="M15.22,12.75a1.945,1.945,0,0,0,1.71-1.007l3.5-6.343a.973.973,0,0,0-.85-1.446H5.114L4.2,2H1V3.955H2.955l3.518,7.418L5.153,13.757a1.958,1.958,0,0,0,1.71,2.9H18.591V14.7H6.864L7.939,12.75ZM6.043,5.909H17.917L15.22,10.8H8.359Z" transform="translate(-1 -2)" fill="#fff"/>
  <path d="M6.955,18a1.955,1.955,0,1,0,1.955,1.955A1.952,1.952,0,0,0,6.955,18Z" transform="translate(-1.091 -2.363)" fill="#fff"/>
  <path d="M16.955,18a1.955,1.955,0,1,0,1.955,1.955A1.952,1.952,0,0,0,16.955,18Z" transform="translate(-1.318 -2.363)" fill="#fff"/>
</svg>
