<svg xmlns="http://www.w3.org/2000/svg" width="15.975" height="18.257"><path d="M0 16.546a1.712 1.712 0 001.712 1.712h12.551a1.712 1.712 0 001.712-1.712v-9.7H0zm11.411-6.989a.429.429 0 01.428-.428h1.426a.429.429 0 01.428.428v1.426a.429.429 0 01-.428.428h-1.426a.429.429 0 01-.428-.428zm0 4.564a.429.429 0 01.428-.428h1.426a.429.429 0 01.428.428v1.426a.429.429 0 01-.428.428h-1.426a.429.429 0 01-.428-.428zM6.846 9.557a.429.429 0 01.428-.428H8.7a.429.429 0 01.428.428v1.426a.429.429 0 01-.428.428H7.274a.429.429 0 01-.428-.428zm0 4.564a.429.429 0 01.428-.428H8.7a.429.429 0 01.428.428v1.426a.429.429 0 01-.428.428H7.274a.429.429 0 01-.428-.428zM2.282 9.557a.429.429 0 01.428-.428h1.426a.429.429 0 01.428.428v1.426a.429.429 0 01-.428.428H2.71a.429.429 0 01-.428-.428zm0 4.564a.429.429 0 01.428-.428h1.426a.429.429 0 01.428.428v1.426a.429.429 0 01-.428.428H2.71a.429.429 0 01-.428-.428zM14.263 2.282h-1.711V.571A.572.572 0 0011.981 0H10.84a.572.572 0 00-.571.571v1.711H5.705V.571A.572.572 0 005.135 0H3.994a.572.572 0 00-.571.571v1.711H1.712A1.712 1.712 0 000 3.994v1.711h15.975V3.994a1.712 1.712 0 00-1.712-1.712z" fill="#fff"/></svg>
