<svg xmlns="http://www.w3.org/2000/svg" width="45.351" height="45.351" viewBox="0 0 45.351 45.351">
  <path d="M41.164,4.419C39.978,3.382,35.177.079,24.474.035c0,0-12.618-.717-18.764,4.632-3.418,3.241-4.623,8-4.754,13.887S.667,35.478,11.884,38.472h.009l-.009,4.57s-.075,1.851,1.214,2.223c1.55.461,2.466-.948,3.951-2.462.813-.833,1.933-2.055,2.783-2.985a45.676,45.676,0,0,0,14.243-.992c1.55-.478,10.32-1.541,11.74-12.576,1.476-11.389-.71-18.581-4.651-21.831Zm1.3,21c-1.2,9.211-8.312,9.8-9.62,10.194a42.251,42.251,0,0,1-12.254.992s-4.857,5.553-6.37,7c-.5.469-1.037.425-1.027-.5,0-.611.037-7.59.037-7.59h0c-9.508-2.5-8.948-11.894-8.845-16.81S5.467,9.75,8.363,7.04c5.2-4.473,15.915-3.808,15.915-3.808,9.05.035,13.384,2.622,14.393,3.489,3.334,2.71,5.034,9.193,3.792,18.7ZM29.48,18.261a.6.6,0,0,1-1.2.053c-.1-1.948-1.065-2.9-3.045-3A.573.573,0,1,1,25.3,14.17C27.9,14.3,29.349,15.72,29.48,18.261Zm1.9,1c.093-3.755-2.382-6.7-7.08-7.023a.573.573,0,1,1,.084-1.142c5.417.372,8.3,3.906,8.2,8.192a.6.6,0,0,1-1.2-.027Zm4.39,1.187a.6.6,0,0,1-1.2.009C34.5,13.24,29.433,9.308,23.278,9.263a.572.572,0,1,1,0-1.142C30.162,8.165,35.7,12.673,35.766,20.449ZM34.71,29.137v.018c-1.009,1.683-2.9,3.543-4.838,2.949l-.019-.027a36.543,36.543,0,0,1-9.545-5,23.823,23.823,0,0,1-3.96-3.755,28.667,28.667,0,0,1-2.877-4.127,25.8,25.8,0,0,1-2.428-4.933c-.626-1.842,1.326-3.631,3.11-4.588h.019a1.764,1.764,0,0,1,2.232.345s1.158,1.311,1.653,1.957c.467.6,1.093,1.568,1.42,2.108a1.783,1.783,0,0,1-.346,2.356l-1.121.85a1.508,1.508,0,0,0-.5,1.24,11.315,11.315,0,0,0,7.873,7.466,1.7,1.7,0,0,0,1.308-.469l.9-1.063a2.025,2.025,0,0,1,2.484-.328,24.215,24.215,0,0,1,4.278,2.914,1.528,1.528,0,0,1,.355,2.09Z" transform="translate(-0.927 -0.003)" fill="#102a83"/>
</svg>
