<svg xmlns="http://www.w3.org/2000/svg" width="27" height="36"><path d="M15.75 9.563V0H1.688A1.683 1.683 0 000 1.688v32.625A1.683 1.683 0 001.688 36h23.625A1.683 1.683 0 0027 34.313V11.25h-9.562a1.692 1.692 0 01-1.688-1.687zm4.5 16.594a.846.846 0 01-.844.844H7.594a.846.846 0 01-.844-.844v-.562a.846.846 0 01.844-.844h11.812a.846.846 0 01.844.844zm0-4.5a.846.846 0 01-.844.844H7.594a.846.846 0 01-.844-.844v-.562a.846.846 0 01.844-.844h11.812a.846.846 0 01.844.844zm0-5.062v.563a.846.846 0 01-.844.844H7.594a.846.846 0 01-.844-.844v-.562a.846.846 0 01.844-.844h11.812a.846.846 0 01.844.842zM27 8.571V9h-9V0h.429a1.686 1.686 0 011.2.492l6.884 6.891A1.682 1.682 0 0127 8.571z" fill="#fff"/></svg>
